<?xml version="1.0"?>
<svg version="1.1" xmlns="http://www.w3.org/2000/svg" width="294" height="70" style=""><path fill="#e6e6fa" d="M38.13,45.935q1.755-0.855,2.88-2.835q1.125-1.89,1.125-4.05q0-3.87-2.61-6.255q-2.61-2.34-6.57-2.34l-12.645,0l-0.54,0l-2.295,0l0,31.545l2.295,0l0.54,0l12.645,0q3.96,0,6.57-2.34q2.61-2.385,2.61-6.255q0-2.115-1.1025-4.1175t-2.9025-3.3525z M20.31,32.75l12.645,0q2.7,0,4.455,1.845q1.89,1.98,1.89,4.455q0,2.025-1.485,3.735q-1.395,1.53-3.69,2.025l-1.17,0l-12.645,0l0-12.06z M32.955,59.705l-12.645,0l0-12.06l12.645,0l1.17,0q2.295,0.495,3.69,2.025q1.485,1.71,1.485,3.735q0,2.43-1.89,4.41q-1.8,1.89-4.455,1.89z M61.5228,30.5q-5.085,0-8.73,3.645q-3.69,3.69-3.69,8.775l0,6.795q0,4.995,3.69,8.685t8.73,3.69q5.085,0,8.775-3.69q3.645-3.645,3.645-8.685l0-6.795q0-5.13-3.645-8.775t-8.775-3.645z M71.1528,42.92l0,6.795q0,4.095-2.88,6.885q-2.835,2.7-6.75,2.7t-6.705-2.7q-2.88-2.79-2.88-6.885l0-6.795q0-3.78,2.88-6.75q2.88-2.88,6.705-2.88q3.78,0,6.75,2.88q2.88,2.97,2.88,6.75z M92.7456,30.5q-5.085,0-8.73,3.645q-3.69,3.69-3.69,8.775l0,6.795q0,4.995,3.69,8.685t8.73,3.69q5.085,0,8.775-3.69q3.645-3.645,3.645-8.685l0-6.795q0-5.13-3.645-8.775t-8.775-3.645z M102.3756,42.92l0,6.795q0,4.095-2.88,6.885q-2.835,2.7-6.75,2.7t-6.705-2.7q-2.88-2.79-2.88-6.885l0-6.795q0-3.78,2.88-6.75q2.88-2.88,6.705-2.88q3.78,0,6.75,2.88q2.88,2.97,2.88,6.75z M132.1134,62l4.545,0l-20.115-16.065l20.115-15.48l-4.545,0l-17.28,13.77l0-13.77l-2.835,0l0,31.545l2.835,0l0-13.77z M158.289,62l2.79,0l0-19.08q0-3.78,2.88-6.75q2.88-2.88,6.66-2.88t6.75,2.88q2.88,2.97,2.88,6.75l0,19.08l2.79,0l0-19.08q0-5.13-3.645-8.775t-8.775-3.645q-5.04,0-8.685,3.645t-3.645,8.775l0,19.08z M202.2918,30.5q-5.085,0-8.73,3.645q-3.69,3.69-3.69,8.775l0,6.795q0,4.995,3.69,8.685t8.73,3.69q5.085,0,8.775-3.69q3.645-3.645,3.645-8.685l0-6.795q0-5.13-3.645-8.775t-8.775-3.645z M211.9218,42.92l0,6.795q0,4.095-2.88,6.885q-2.835,2.7-6.75,2.7t-6.705-2.7q-2.88-2.79-2.88-6.885l0-6.795q0-3.78,2.88-6.75q2.88-2.88,6.705-2.88q3.78,0,6.75,2.88q2.88,2.97,2.88,6.75z M233.5146,30.5q-5.085,0-8.73,3.645q-3.69,3.69-3.69,8.775l0,6.795q0,4.995,3.69,8.685t8.73,3.69q5.085,0,8.775-3.69q3.645-3.645,3.645-8.685l0-6.795q0-5.13-3.645-8.775t-8.775-3.645z M243.1446,42.92l0,6.795q0,4.095-2.88,6.885q-2.835,2.7-6.75,2.7t-6.705-2.7q-2.88-2.79-2.88-6.885l0-6.795q0-3.78,2.88-6.75q2.88-2.88,6.705-2.88q3.78,0,6.75,2.88q2.88,2.97,2.88,6.75z M272.8824,62l4.545,0l-20.115-16.065l20.115-15.48l-4.545,0l-17.28,13.77l0-13.77l-2.835,0l0,31.545l2.835,0l0-13.77z"/><path fill="#" d=""/></svg>
